HIERARCHY
ROOT pelvis
{
  OFFSET 0 100 0
  CHANNELS 6 Xposition Yposition Zposition Zrotation Xrotation Yrotation
  JOINT pelvis_right_femur
  {
    OFFSET -10.78128 -3.44521 -0.5502486
    CHANNELS 3 Zrotation Xrotation Yrotation
    JOINT right_femur_tibia
    {
      OFFSET -0.8047443 -44.0398 -0.1307829
      CHANNELS 3 Zrotation Xrotation Yrotation
      JOINT right_tibia_foot
      {
        OFFSET 3.006224 -47.83518 -5
        CHANNELS 3 Zrotation Xrotation Yrotation
        End Site
        {
          OFFSET 0 -5 15
        }
      }
    }
  }
  JOINT pelvis_left_femur
  {
    OFFSET 10.78128 -3.44521 -0.5502486
    CHANNELS 3 Zrotation Xrotation Yrotation
    JOINT left_femur_tibia
    {
      OFFSET 0.8047443 -44.0398 -0.1307829
      CHANNELS 3 Zrotation Xrotation Yrotation
      JOINT left_tibia_foot
      {
        OFFSET -4.370144 -48.10324 -4.275266
        CHANNELS 3 Zrotation Xrotation Yrotation
        End Site
        {
          OFFSET 0 -5 15
        }
      }
    }
  }
  JOINT pelvis_spine1
  {
    OFFSET 0 6.468898 -3.129235
    CHANNELS 3 Zrotation Xrotation Yrotation
    JOINT spine1
    {
      OFFSET 0 23.15396 4.99043
      CHANNELS 3 Zrotation Xrotation Yrotation
      JOINT spine2
      {
        OFFSET 0 20.79997 -5.064912
        CHANNELS 3 Zrotation Xrotation Yrotation
        JOINT neck
        {
          OFFSET 0 14.38658 9.616178
          CHANNELS 3 Zrotation Xrotation Yrotation
          End Site
          {
            OFFSET 0 20 0
          }
        }
      }
      JOINT right_manubrium
      {
        OFFSET -5.722621 16.35077 3.967754
        CHANNELS 3 Zrotation Xrotation Yrotation
        JOINT right_clavicle
        {
          OFFSET -13.16364 1.694482 -4.693211
          CHANNELS 3 Zrotation Xrotation Yrotation
          JOINT right_humerus
          {
            OFFSET -28.5034 -0.3100689 -2.792744
            CHANNELS 3 Zrotation Xrotation Yrotation
            JOINT right_radius
            {
              OFFSET -25.15693 0.02248979 -1.271978
              CHANNELS 3 Zrotation Xrotation Yrotation
              End Site
              {
                OFFSET -15 0 0
              }
            }
          }
        }
      }
      JOINT left_manubrium
      {
        OFFSET 5.722621 16.35077 3.967754
        CHANNELS 3 Zrotation Xrotation Yrotation
        JOINT left_clavicle
        {
          OFFSET 13.16364 1.694482 -4.693211
          CHANNELS 3 Zrotation Xrotation Yrotation
          JOINT left_humerus
          {
            OFFSET 29.39168 -1.063119 -2.237045
            CHANNELS 3 Zrotation Xrotation Yrotation
            JOINT left_radius
            {
              OFFSET 24.59957 -0.9528479 0.9047498
              CHANNELS 3 Zrotation Xrotation Yrotation
              End Site
              {
                OFFSET 15 -0 -0
              }
            }
          }
        }
      }
    }
  }
}
MOTION
Frames: 7
Frame Time: 0.0416666666667
0 103.5113 0 2.652921 -2.368112 0.2354059 0.6662989 -10.80099 7.067016 -0 36.66435 -0 -4.750718 -18.50526 -2.997801 -8.058612 11.573 -23.83397 -0 4.101724 -0 7.746821 -15.67888 25.56814 -2.512866 -4.018069 5.034104 3.066343 9.799065 -8.3718 1.830974 20.88948 6.218762 2.727291 -26.56616 10.0353 6.219871 -19.93921 11.38243 86.42307 34.29164 -21.02896 -0 0 16.83664 -4.577681 7.525783 2.687353 6.707544 -20.83756 -0.5715928 -95.3971 26.10959 23.84712 0 0 -15.31174 10.17596 17.38373 2.922362
0.2661384 103.477 1.317911 1.850653 -1.463175 0.2574971 1.917335 -13.62967 8.002098 -0 37.34002 -0 -4.806488 -18.31433 -3.207465 -7.565304 11.58668 -24.08981 -0 4.24415 -0 6.736607 -17.08303 25.79219 -2.652259 -4.175531 5.055943 3.078086 9.802636 -8.371235 1.884706 20.93322 6.186054 2.684113 -26.59696 10.12361 6.225055 -20.09165 11.37363 86.3219 34.21581 -20.91641 -0 0 17.08669 -4.50295 7.436393 2.621742 6.745228 -20.79185 -0.5437443 -95.51674 26.08517 23.95403 0 0 -15.10268 10.35765 17.5541 2.732552
0.5213051 103.3043 2.945893 1.213201 -0.4545709 0.3199668 3.212579 -17.99282 7.575778 -0 34.40672 -0 -5.40094 -16.14529 -2.858638 -7.271169 11.8321 -23.03495 -0 4.370425 -0 7.45411 -18.21567 25.58252 -2.096859 -3.378896 4.935548 3.039603 9.820008 -8.348977 1.634644 20.67061 6.417627 2.925724 -26.47647 9.76608 6.165191 -19.41934 11.43471 86.69081 34.84623 -21.16241 -0 0 15.8055 -5.147179 8.057521 3.152708 6.607362 -20.99827 -0.6886225 -94.48411 25.62341 22.98649 0 0 -16.37083 10.14925 16.37815 2.893191
0.7744967 103.0221 4.859386 0.665018 0.6197157 0.4315168 4.396579 -21.88439 7.548299 -0 31.73661 -0 -5.642112 -14.33017 -2.588577 -7.047388 12.00532 -22.1759 -0 4.582198 -0 8.113006 -19.1533 25.42896 -1.75643 -2.873611 4.852486 2.994892 9.862028 -8.323906 1.472798 20.53454 6.544423 3.077235 -26.30487 9.488643 6.130766 -18.96527 11.48102 86.90853 35.14547 -21.28024 -0 0 14.97246 -5.76822 8.51984 3.580519 6.515528 -21.14157 -0.7892748 -93.81507 25.26902 22.31786 0 0 -17.0359 9.927545 15.63211 3.055327
1.032799 102.5973 7.150284 0.1987334 1.576368 0.6166241 5.39791 -25.59543 7.226982 -0 28.42906 -0 -5.928257 -12.13396 -2.1815 -6.856407 12.2956 -21.12259 -0 5.026746 -0 8.693671 -19.97317 24.98996 -1.507351 -2.529082 4.818913 2.953459 9.906061 -8.320992 1.351139 20.44391 6.612612 3.178938 -26.14876 9.25106 6.104231 -18.66296 11.5182 87.09837 35.3027 -21.43361 -0 0 14.4239 -6.225213 8.829502 3.874797 6.433155 -21.26658 -0.8798556 -93.4176 25.15657 21.95263 0 0 -17.53204 9.566533 15.1113 3.433837
1.300075 102.0199 9.906833 -0.2082336 2.373557 0.8919667 6.186052 -29.0025 6.623617 -0 24.69271 -0 -6.268856 -9.627344 -1.674047 -6.670066 12.72899 -19.90208 -0 5.841647 -0 9.005173 -20.65903 24.20273 -1.31734 -2.266868 4.805806 2.911077 9.952988 -8.319278 1.253189 20.38119 6.654175 3.256227 -25.99237 9.040687 6.0837 -18.4367 11.55025 87.24561 35.40093 -21.55437 -0 0 14.01975 -6.64158 9.085703 4.125998 6.361395 -21.37362 -0.9585789 -93.12679 25.10079 21.6996 0 0 -17.90538 9.202578 14.70263 3.830037
1.577086 101.2949 13.23038 -0.5603607 2.939987 1.268779 6.697302 -31.93312 5.667192 -0 20.63083 -0 -6.690622 -6.841991 -1.097262 -6.468324 13.34729 -18.47133 -0 7.217256 -0 8.875771 -21.13181 22.94923 -1.164564 -2.068593 4.813783 2.867251 9.999625 -8.322208 1.170835 20.33704 6.674191 3.315243 -25.83918 8.846899 6.069853 -18.27169 11.57784 87.36987 35.46065 -21.67263 -0 0 13.73554 -7.002954 9.293392 4.329102 6.294639 -21.47146 -1.029648 -92.93917 25.13192 21.56715 0 0 -18.20603 8.795453 14.38872 4.297154
